<svg width="50" height="50" viewBox="0 0 50 50" fill="none" xmlns="http://www.w3.org/2000/svg">
<path d="M14.8958 43.9583C14.3749 43.4375 14.1145 42.8208 14.1145 42.1083C14.1145 41.3972 14.3749 40.7812 14.8958 40.2604L30.1562 25L14.8437 9.68748C14.3576 9.20137 14.1145 8.59373 14.1145 7.86456C14.1145 7.1354 14.3749 6.5104 14.8958 5.98956C15.4166 5.46873 16.0333 5.20831 16.7458 5.20831C17.4569 5.20831 18.0728 5.46873 18.5937 5.98956L36.0937 23.5416C36.302 23.75 36.4499 23.9757 36.5374 24.2187C36.6235 24.4618 36.6666 24.7222 36.6666 25C36.6666 25.2778 36.6235 25.5382 36.5374 25.7812C36.4499 26.0243 36.302 26.25 36.0937 26.4583L18.5416 44.0104C18.0555 44.4965 17.4569 44.7396 16.7458 44.7396C16.0333 44.7396 15.4166 44.4791 14.8958 43.9583Z" fill="white"/>
</svg>
