<svg width="80" height="80" viewBox="0 0 80 80" fill="none" xmlns="http://www.w3.org/2000/svg">
<path d="M8.33333 13.2333L12.6 9L68.3333 64.7333L64.1 69L53.8333 58.7333C50 60 45.9333 60.6667 41.6667 60.6667C25 60.6667 10.7667 50.3 5 35.6667C7.3 29.8 10.9667 24.6333 15.6333 20.5333L8.33333 13.2333ZM41.6667 25.6667C44.3188 25.6667 46.8624 26.7202 48.7377 28.5956C50.6131 30.471 51.6667 33.0145 51.6667 35.6667C51.6683 36.8019 51.4767 37.9291 51.1 39L38.3333 26.2333C39.4042 25.8566 40.5314 25.665 41.6667 25.6667ZM41.6667 10.6667C58.3333 10.6667 72.5667 21.0333 78.3333 35.6667C75.6128 42.5774 70.9898 48.5757 65 52.9667L60.2667 48.2C64.8763 45.0113 68.594 40.6969 71.0667 35.6667C68.3719 30.1665 64.1881 25.5326 58.9909 22.2917C53.7937 19.0508 47.7915 17.3329 41.6667 17.3333C38.0333 17.3333 34.4667 17.9333 31.1333 19L26 13.9C30.8 11.8333 36.1 10.6667 41.6667 10.6667ZM12.2667 35.6667C14.9615 41.1669 19.1452 45.8008 24.3424 49.0416C29.5396 52.2825 35.5418 54.0004 41.6667 54C43.9667 54 46.2333 53.7667 48.3333 53.3L40.7333 45.6667C38.4139 45.418 36.2494 44.3829 34.5999 42.7334C32.9504 41.0839 31.9153 38.9195 31.6667 36.6L20.3333 25.2333C17.0333 28.0667 14.2667 31.6 12.2667 35.6667Z" fill="white" fill-opacity="0.7"/>
<path d="M8.33333 13.2333L12.6 9L68.3333 64.7333L64.1 69L53.8333 58.7333C50 60 45.9333 60.6667 41.6667 60.6667C25 60.6667 10.7667 50.3 5 35.6667C7.3 29.8 10.9667 24.6333 15.6333 20.5333L8.33333 13.2333ZM12.2667 35.6667C14.9615 41.1669 19.1452 45.8008 24.3424 49.0416C29.5396 52.2825 35.5418 54.0004 41.6667 54C43.9667 54 46.2333 53.7667 48.3333 53.3L40.7333 45.6667C38.4139 45.418 36.2494 44.3829 34.5999 42.7334C32.9504 41.0839 31.9153 38.9195 31.6667 36.6L20.3333 25.2333C17.0333 28.0667 14.2667 31.6 12.2667 35.6667Z" fill="white"/>
</svg>
