<svg width="60" height="55" viewBox="0 0 60 55" fill="none" xmlns="http://www.w3.org/2000/svg">
<path d="M30 14.8958C34.5968 14.8818 39.1047 16.0572 43.0053 18.2869C46.9059 20.5165 50.041 23.71 52.05 27.5C47.925 35.2229 39.5 40.1042 30 40.1042C20.5 40.1042 12.075 35.2229 7.95 27.5C9.95904 23.71 13.0941 20.5165 16.9947 18.2869C20.8953 16.0572 25.4032 14.8818 30 14.8958ZM30 10.3125C17.5 10.3125 6.825 17.4396 2.5 27.5C6.825 37.5604 17.5 44.6875 30 44.6875C42.5 44.6875 53.175 37.5604 57.5 27.5C53.175 17.4396 42.5 10.3125 30 10.3125ZM30 21.7708C31.6576 21.7708 33.2473 22.3744 34.4194 23.4489C35.5915 24.5233 36.25 25.9805 36.25 27.5C36.25 29.0195 35.5915 30.4767 34.4194 31.5511C33.2473 32.6256 31.6576 33.2292 30 33.2292C28.3424 33.2292 26.7527 32.6256 25.5806 31.5511C24.4085 30.4767 23.75 29.0195 23.75 27.5C23.75 25.9805 24.4085 24.5233 25.5806 23.4489C26.7527 22.3744 28.3424 21.7708 30 21.7708ZM30 17.1875C23.8 17.1875 18.75 21.8167 18.75 27.5C18.75 33.1833 23.8 37.8125 30 37.8125C36.2 37.8125 41.25 33.1833 41.25 27.5C41.25 21.8167 36.2 17.1875 30 17.1875Z" fill="white"/>
</svg>
