<svg width="655" height="502" viewBox="0 0 655 502" fill="none" xmlns="http://www.w3.org/2000/svg">
<g clip-path="url(#clip0_1_170)">
<path d="M210.595 78.0982H209.26V149.521H210.595V78.0982Z" fill="#3F3D56"/>
<path d="M210.595 170.782H209.26V233.627H210.595V170.782Z" fill="#3F3D56"/>
<path d="M310.721 243.64H207.257V244.975H310.721V243.64Z" fill="#3F3D56"/>
<path d="M164.537 261.663H163.202V318.401H164.537V261.663Z" fill="#3F3D56"/>
<path d="M332.081 328.413H175.217V329.748H332.081V328.413Z" fill="#3F3D56"/>
<path d="M462.912 32.7077H461.577V100.126H462.912V32.7077Z" fill="#3F3D56"/>
<path d="M451.565 110.806H353.418V112.141H451.565V110.806Z" fill="#3F3D56"/>
<path d="M343.428 121.486H342.093V211.6H343.428V121.486Z" fill="#3F3D56"/>
<path d="M209.927 171.549C207.683 171.549 205.489 170.884 203.623 169.637C201.756 168.39 200.302 166.618 199.443 164.544C198.584 162.471 198.36 160.189 198.797 157.988C199.235 155.787 200.316 153.765 201.903 152.178C203.49 150.591 205.512 149.51 207.713 149.072C209.914 148.634 212.196 148.859 214.27 149.718C216.343 150.577 218.115 152.031 219.362 153.897C220.609 155.763 221.275 157.957 221.275 160.202C221.271 163.21 220.075 166.094 217.947 168.222C215.82 170.349 212.936 171.546 209.927 171.549ZM209.927 150.189C207.947 150.189 206.011 150.776 204.364 151.876C202.718 152.977 201.434 154.54 200.677 156.37C199.919 158.199 199.72 160.213 200.107 162.155C200.493 164.097 201.447 165.881 202.847 167.282C204.247 168.682 206.031 169.635 207.974 170.022C209.916 170.408 211.929 170.21 213.759 169.452C215.588 168.694 217.152 167.411 218.252 165.764C219.352 164.118 219.94 162.182 219.94 160.202C219.937 157.547 218.881 155.002 217.004 153.125C215.127 151.248 212.582 150.192 209.927 150.189Z" fill="#3F3D56"/>
<path d="M164.537 340.428C162.292 340.428 160.098 339.763 158.232 338.516C156.366 337.269 154.912 335.497 154.053 333.423C153.194 331.35 152.969 329.068 153.407 326.867C153.845 324.666 154.926 322.644 156.513 321.057C158.1 319.47 160.122 318.389 162.323 317.951C164.524 317.513 166.806 317.738 168.879 318.597C170.953 319.456 172.725 320.91 173.972 322.776C175.219 324.643 175.884 326.836 175.884 329.081C175.881 332.089 174.684 334.974 172.557 337.101C170.43 339.228 167.545 340.425 164.537 340.428ZM164.537 319.068C162.556 319.068 160.62 319.655 158.974 320.756C157.327 321.856 156.044 323.42 155.286 325.249C154.528 327.079 154.33 329.092 154.716 331.034C155.103 332.976 156.056 334.761 157.457 336.161C158.857 337.561 160.641 338.515 162.583 338.901C164.525 339.287 166.539 339.089 168.368 338.331C170.198 337.573 171.762 336.29 172.862 334.644C173.962 332.997 174.549 331.061 174.549 329.081C174.546 326.426 173.49 323.881 171.613 322.004C169.736 320.127 167.191 319.071 164.537 319.068Z" fill="#3F3D56"/>
<path d="M210.594 254.988C216.493 254.988 221.274 250.206 221.274 244.308C221.274 238.409 216.493 233.627 210.594 233.627C204.696 233.627 199.914 238.409 199.914 244.308C199.914 250.206 204.696 254.988 210.594 254.988Z" fill="#B48F42"/>
<path d="M597.081 159.534H486.275V160.869H597.081V159.534Z" fill="#3F3D56"/>
<path d="M476.262 170.782H474.927V233.627H476.262V170.782Z" fill="#3F3D56"/>
<path d="M464.247 243.64H375.469V244.975H464.247V243.64Z" fill="#3F3D56"/>
<path d="M623.781 249.648H531.665V250.983H623.781V249.648Z" fill="#3F3D56"/>
<path d="M522.32 261.663H520.985V318.401H522.32V261.663Z" fill="#3F3D56"/>
<path d="M510.305 328.413H353.441V329.748H510.305V328.413Z" fill="#3F3D56"/>
<path d="M343.428 277.015H342.093V318.401H343.428V277.015Z" fill="#3F3D56"/>
<path d="M475.595 170.882C481.493 170.882 486.275 166.1 486.275 160.202C486.275 154.303 481.493 149.522 475.595 149.522C469.696 149.522 464.915 154.303 464.915 160.202C464.915 166.1 469.696 170.882 475.595 170.882Z" fill="#B48F42"/>
<path d="M462.245 122.154C460 122.154 457.806 121.488 455.94 120.241C454.074 118.994 452.62 117.222 451.761 115.149C450.902 113.075 450.677 110.793 451.115 108.592C451.553 106.391 452.634 104.369 454.221 102.782C455.808 101.195 457.83 100.114 460.031 99.6765C462.232 99.2386 464.514 99.4634 466.587 100.322C468.661 101.181 470.433 102.636 471.68 104.502C472.927 106.368 473.592 108.562 473.592 110.806C473.589 113.815 472.392 116.699 470.265 118.826C468.137 120.954 465.253 122.15 462.245 122.154ZM462.245 100.793C460.264 100.793 458.328 101.381 456.682 102.481C455.035 103.581 453.752 105.145 452.994 106.974C452.236 108.804 452.038 110.817 452.424 112.759C452.811 114.702 453.764 116.486 455.165 117.886C456.565 119.286 458.349 120.24 460.291 120.626C462.233 121.013 464.247 120.814 466.076 120.057C467.906 119.299 469.47 118.015 470.57 116.369C471.67 114.722 472.257 112.786 472.257 110.806C472.254 108.151 471.198 105.606 469.321 103.729C467.444 101.852 464.899 100.796 462.245 100.793Z" fill="#3F3D56"/>
<path d="M342.761 122.154C340.517 122.154 338.323 121.488 336.457 120.241C334.59 118.994 333.136 117.222 332.277 115.149C331.418 113.075 331.194 110.793 331.631 108.592C332.069 106.391 333.15 104.369 334.737 102.782C336.324 101.195 338.346 100.114 340.547 99.6765C342.748 99.2386 345.03 99.4634 347.103 100.322C349.177 101.181 350.949 102.636 352.196 104.502C353.443 106.368 354.109 108.562 354.109 110.806C354.105 113.815 352.909 116.699 350.781 118.826C348.654 120.954 345.769 122.15 342.761 122.154ZM342.761 100.793C340.781 100.793 338.845 101.381 337.198 102.481C335.552 103.581 334.268 105.145 333.511 106.974C332.753 108.804 332.554 110.817 332.941 112.759C333.327 114.702 334.281 116.486 335.681 117.886C337.081 119.286 338.865 120.24 340.808 120.626C342.75 121.013 344.763 120.814 346.593 120.057C348.422 119.299 349.986 118.015 351.086 116.369C352.186 114.722 352.774 112.786 352.774 110.806C352.771 108.151 351.715 105.606 349.838 103.729C347.961 101.852 345.416 100.796 342.761 100.793Z" fill="#3F3D56"/>
<path d="M520.985 262.33C518.741 262.33 516.547 261.665 514.681 260.418C512.815 259.171 511.36 257.399 510.501 255.325C509.642 253.252 509.418 250.97 509.856 248.769C510.293 246.567 511.374 244.546 512.961 242.959C514.548 241.372 516.57 240.291 518.771 239.853C520.973 239.415 523.254 239.64 525.328 240.499C527.401 241.358 529.174 242.812 530.42 244.678C531.667 246.544 532.333 248.738 532.333 250.983C532.329 253.991 531.133 256.875 529.005 259.003C526.878 261.13 523.994 262.327 520.985 262.33ZM520.985 240.97C519.005 240.97 517.069 241.557 515.422 242.657C513.776 243.758 512.493 245.321 511.735 247.151C510.977 248.98 510.779 250.994 511.165 252.936C511.551 254.878 512.505 256.662 513.905 258.063C515.306 259.463 517.09 260.416 519.032 260.803C520.974 261.189 522.987 260.991 524.817 260.233C526.646 259.475 528.21 258.192 529.31 256.545C530.411 254.899 530.998 252.963 530.998 250.983C530.995 248.328 529.939 245.783 528.062 243.906C526.185 242.029 523.64 240.973 520.985 240.97Z" fill="#3F3D56"/>
<path d="M520.985 339.761C526.884 339.761 531.665 334.979 531.665 329.081C531.665 323.182 526.884 318.401 520.985 318.401C515.087 318.401 510.305 323.182 510.305 329.081C510.305 334.979 515.087 339.761 520.985 339.761Z" fill="#B48F42"/>
<path d="M342.761 340.428C340.517 340.428 338.323 339.763 336.457 338.516C334.59 337.269 333.136 335.497 332.277 333.423C331.418 331.35 331.194 329.068 331.631 326.867C332.069 324.666 333.15 322.644 334.737 321.057C336.324 319.47 338.346 318.389 340.547 317.951C342.748 317.513 345.03 317.738 347.103 318.597C349.177 319.456 350.949 320.91 352.196 322.776C353.443 324.643 354.109 326.836 354.109 329.081C354.105 332.089 352.909 334.974 350.781 337.101C348.654 339.228 345.769 340.425 342.761 340.428ZM342.761 319.068C340.781 319.068 338.845 319.655 337.198 320.756C335.552 321.856 334.268 323.42 333.511 325.249C332.753 327.079 332.554 329.092 332.941 331.034C333.327 332.976 334.281 334.761 335.681 336.161C337.081 337.561 338.865 338.515 340.808 338.901C342.75 339.287 344.763 339.089 346.593 338.331C348.422 337.573 349.986 336.29 351.086 334.644C352.186 332.997 352.774 331.061 352.774 329.081C352.771 326.426 351.715 323.881 349.838 322.004C347.961 320.127 345.416 319.071 342.761 319.068Z" fill="#3F3D56"/>
<path d="M474.927 255.655C472.683 255.655 470.489 254.99 468.623 253.743C466.757 252.496 465.302 250.724 464.443 248.65C463.585 246.577 463.36 244.295 463.798 242.094C464.235 239.892 465.316 237.87 466.903 236.283C468.49 234.696 470.512 233.616 472.713 233.178C474.915 232.74 477.196 232.965 479.27 233.824C481.343 234.683 483.116 236.137 484.362 238.003C485.609 239.869 486.275 242.063 486.275 244.307C486.271 247.316 485.075 250.2 482.947 252.328C480.82 254.455 477.936 255.652 474.927 255.655ZM474.927 234.295C472.947 234.295 471.011 234.882 469.364 235.982C467.718 237.082 466.435 238.646 465.677 240.476C464.919 242.305 464.721 244.319 465.107 246.261C465.493 248.203 466.447 249.987 467.847 251.387C469.248 252.788 471.032 253.741 472.974 254.128C474.916 254.514 476.929 254.316 478.759 253.558C480.588 252.8 482.152 251.517 483.252 249.87C484.353 248.224 484.94 246.288 484.94 244.307C484.937 241.653 483.881 239.108 482.004 237.231C480.127 235.354 477.582 234.298 474.927 234.295Z" fill="#3F3D56"/>
<path d="M164.536 228.287C161.896 228.287 159.315 229.07 157.119 230.537C154.924 232.004 153.213 234.089 152.202 236.529C151.192 238.968 150.928 241.652 151.443 244.242C151.958 246.832 153.229 249.21 155.096 251.078C156.964 252.945 159.342 254.216 161.932 254.731C164.522 255.246 167.206 254.982 169.645 253.971C172.085 252.961 174.17 251.25 175.637 249.055C177.104 246.859 177.887 244.278 177.887 241.638C177.876 238.1 176.466 234.71 173.965 232.209C171.464 229.708 168.074 228.298 164.536 228.287ZM164.536 232.292C165.329 232.292 166.103 232.527 166.762 232.967C167.42 233.407 167.933 234.033 168.237 234.765C168.54 235.497 168.619 236.302 168.465 237.079C168.31 237.856 167.929 238.569 167.368 239.129C166.808 239.69 166.095 240.071 165.318 240.226C164.541 240.38 163.736 240.301 163.004 239.998C162.272 239.695 161.646 239.181 161.206 238.523C160.766 237.864 160.531 237.09 160.531 236.297C160.535 235.236 160.958 234.22 161.708 233.469C162.459 232.719 163.475 232.296 164.536 232.292ZM164.536 251.573C162.954 251.566 161.398 251.173 160.002 250.428C158.606 249.683 157.413 248.609 156.526 247.299C156.591 244.629 161.866 243.159 164.536 243.159C167.206 243.159 172.482 244.629 172.547 247.299C171.659 248.608 170.466 249.681 169.07 250.426C167.674 251.171 166.118 251.565 164.536 251.573Z" fill="#3F3D56"/>
<path d="M210.594 46.058C207.954 46.058 205.373 46.841 203.177 48.3079C200.982 49.7748 199.271 51.8598 198.26 54.2992C197.25 56.7387 196.986 59.4229 197.501 62.0126C198.016 64.6023 199.287 66.981 201.154 68.8481C203.021 70.7151 205.4 71.9866 207.99 72.5017C210.579 73.0169 213.264 72.7525 215.703 71.742C218.143 70.7316 220.228 69.0205 221.695 66.8251C223.161 64.6296 223.944 62.0485 223.944 59.4081C223.934 55.8706 222.524 52.481 220.023 49.9796C217.521 47.4782 214.132 46.0683 210.594 46.058ZM210.594 50.063C211.386 50.063 212.161 50.2979 212.819 50.738C213.478 51.1781 213.991 51.8036 214.294 52.5354C214.598 53.2672 214.677 54.0725 214.522 54.8494C214.368 55.6263 213.986 56.3399 213.426 56.9001C212.866 57.4602 212.153 57.8416 211.376 57.9962C210.599 58.1507 209.793 58.0714 209.062 57.7682C208.33 57.4651 207.704 56.9518 207.264 56.2931C206.824 55.6345 206.589 54.8602 206.589 54.0681C206.593 53.007 207.016 51.9903 207.766 51.24C208.517 50.4897 209.533 50.0666 210.594 50.063ZM210.594 69.3437C209.012 69.3365 207.456 68.9434 206.06 68.1985C204.664 67.4536 203.471 66.3794 202.584 65.0691C202.648 62.3991 207.924 60.9293 210.594 60.9293C213.264 60.9293 218.54 62.3991 218.604 65.0691C217.717 66.3784 216.523 67.4519 215.128 68.1966C213.732 68.9414 212.176 69.3351 210.594 69.3437Z" fill="#3F3D56"/>
<path d="M462.244 0C459.604 0 457.023 0.782975 454.827 2.24991C452.632 3.71684 450.921 5.80185 449.911 8.24126C448.9 10.6807 448.636 13.3649 449.151 15.9546C449.666 18.5443 450.937 20.9231 452.804 22.7901C454.672 24.6572 457.05 25.9286 459.64 26.4438C462.23 26.9589 464.914 26.6945 467.353 25.6841C469.793 24.6736 471.878 22.9625 473.345 20.7671C474.812 18.5717 475.595 15.9905 475.595 13.3501C475.584 9.81265 474.174 6.423 471.673 3.9216C469.172 1.42021 465.782 0.0103546 462.244 0ZM462.244 4.00504C463.037 4.00504 463.811 4.23993 464.469 4.68001C465.128 5.12009 465.641 5.7456 465.945 6.47742C466.248 7.20925 466.327 8.01453 466.173 8.79143C466.018 9.56833 465.637 10.282 465.076 10.8421C464.516 11.4022 463.803 11.7836 463.026 11.9382C462.249 12.0927 461.444 12.0134 460.712 11.7103C459.98 11.4071 459.354 10.8938 458.914 10.2352C458.474 9.57654 458.239 8.8022 458.239 8.01008C458.243 6.94897 458.666 5.93233 459.416 5.182C460.167 4.43168 461.183 4.00858 462.244 4.00504ZM462.244 23.2857C460.662 23.2785 459.106 22.8854 457.71 22.1405C456.314 21.3956 455.121 20.3214 454.234 19.0111C454.299 16.3411 459.574 14.8713 462.244 14.8713C464.914 14.8713 470.19 16.3411 470.255 19.0111C469.367 20.3204 468.174 21.3939 466.778 22.1386C465.382 22.8834 463.826 23.2771 462.244 23.2857Z" fill="#3F3D56"/>
<path d="M615.771 146.184C613.131 146.184 610.55 146.967 608.354 148.434C606.159 149.901 604.448 151.986 603.437 154.425C602.427 156.865 602.162 159.549 602.677 162.139C603.193 164.728 604.464 167.107 606.331 168.974C608.198 170.841 610.577 172.113 613.167 172.628C615.756 173.143 618.441 172.879 620.88 171.868C623.319 170.858 625.404 169.147 626.871 166.951C628.338 164.756 629.121 162.175 629.121 159.534C629.111 155.997 627.701 152.607 625.2 150.106C622.698 147.604 619.309 146.194 615.771 146.184ZM615.771 150.189C616.563 150.189 617.337 150.424 617.996 150.864C618.655 151.304 619.168 151.93 619.471 152.661C619.774 153.393 619.854 154.199 619.699 154.975C619.545 155.752 619.163 156.466 618.603 157.026C618.043 157.586 617.329 157.968 616.552 158.122C615.775 158.277 614.97 158.197 614.238 157.894C613.507 157.591 612.881 157.078 612.441 156.419C612.001 155.761 611.766 154.986 611.766 154.194C611.77 153.133 612.193 152.116 612.943 151.366C613.693 150.616 614.71 150.193 615.771 150.189ZM615.771 169.47C614.189 169.463 612.632 169.069 611.237 168.325C609.841 167.58 608.648 166.505 607.761 165.195C607.825 162.525 613.101 161.055 615.771 161.055C618.441 161.055 623.717 162.525 623.781 165.195C622.893 166.504 621.7 167.578 620.305 168.323C618.909 169.067 617.353 169.461 615.771 169.47Z" fill="#3F3D56"/>
<path d="M641.136 236.297C638.496 236.297 635.915 237.08 633.719 238.547C631.524 240.014 629.813 242.099 628.802 244.539C627.792 246.978 627.528 249.662 628.043 252.252C628.558 254.842 629.829 257.22 631.696 259.088C633.563 260.955 635.942 262.226 638.532 262.741C641.121 263.256 643.806 262.992 646.245 261.981C648.685 260.971 650.77 259.26 652.237 257.065C653.703 254.869 654.486 252.288 654.486 249.648C654.476 246.11 653.066 242.72 650.565 240.219C648.063 237.718 644.674 236.308 641.136 236.297ZM641.136 240.302C641.928 240.302 642.703 240.537 643.361 240.977C644.02 241.418 644.533 242.043 644.836 242.775C645.14 243.507 645.219 244.312 645.064 245.089C644.91 245.866 644.528 246.579 643.968 247.14C643.408 247.7 642.695 248.081 641.918 248.236C641.141 248.39 640.335 248.311 639.604 248.008C638.872 247.705 638.246 247.191 637.806 246.533C637.366 245.874 637.131 245.1 637.131 244.308C637.135 243.246 637.558 242.23 638.308 241.479C639.059 240.729 640.075 240.306 641.136 240.302ZM641.136 259.583C639.554 259.576 637.998 259.183 636.602 258.438C635.206 257.693 634.013 256.619 633.126 255.309C633.19 252.639 638.466 251.169 641.136 251.169C643.806 251.169 649.082 252.639 649.146 255.309C648.259 256.618 647.065 257.691 645.67 258.436C644.274 259.181 642.718 259.575 641.136 259.583Z" fill="#3F3D56"/>
<path d="M343.614 236.075L342.246 241.558C343.797 241.945 348.576 243.522 349.35 240.418C350.157 237.183 345.164 236.461 343.614 236.075Z" fill="#B48F42"/>
<path d="M341.557 244.326L340.048 250.372C341.91 250.835 347.652 252.678 348.501 249.267C349.388 245.711 343.418 244.791 341.557 244.326Z" fill="#B48F42"/>
<path d="M349.796 219.751C344.993 218.554 339.944 218.807 335.285 220.48C330.626 222.152 326.568 225.169 323.624 229.147C320.68 233.126 318.981 237.889 318.744 242.833C318.506 247.777 319.74 252.68 322.289 256.923C324.838 261.166 328.588 264.558 333.065 266.669C337.542 268.781 342.544 269.518 347.44 268.786C352.335 268.055 356.904 265.888 360.568 262.56C364.232 259.232 366.827 254.893 368.024 250.09C368.82 246.901 368.98 243.586 368.495 240.336C368.009 237.085 366.888 233.962 365.195 231.144C363.503 228.327 361.271 225.871 358.629 223.916C355.987 221.961 352.985 220.546 349.796 219.751ZM354.777 240.468C354.416 242.907 353.065 244.088 351.27 244.501C353.734 245.783 354.988 247.751 353.793 251.162C352.311 255.397 348.789 255.755 344.106 254.869L342.97 259.424L340.223 258.739L341.344 254.245C340.613 254.064 339.883 253.875 339.156 253.678L338.03 258.193L335.287 257.508L336.423 252.945C335.782 252.781 335.13 252.606 334.466 252.44L330.892 251.548L332.255 248.404C332.255 248.404 334.279 248.943 334.251 248.903C334.377 248.943 334.509 248.958 334.64 248.947C334.772 248.936 334.899 248.899 335.016 248.839C335.133 248.778 335.237 248.695 335.322 248.594C335.406 248.493 335.47 248.376 335.51 248.25L337.306 241.05C337.407 241.075 337.505 241.099 337.596 241.122C337.503 241.085 337.407 241.055 337.31 241.03L338.591 235.89C338.63 235.509 338.517 235.129 338.278 234.83C338.038 234.532 337.692 234.339 337.312 234.293C337.355 234.264 335.317 233.797 335.317 233.797L336.048 230.864L339.836 231.81L339.833 231.824C340.402 231.965 340.989 232.099 341.587 232.235L342.713 227.725L345.457 228.409L344.355 232.831C345.092 233 345.833 233.169 346.555 233.349L347.651 228.956L350.397 229.64L349.272 234.152C352.739 235.347 355.275 237.137 354.777 240.468Z" fill="#B48F42"/>
<path d="M101.461 489.479C99.5615 506.751 -0.150925 505.301 0.000171547 489.478C1.89948 472.206 101.612 473.656 101.461 489.479Z" fill="#E6E6E6"/>
<path d="M69.2565 445.999L73.2989 454.756L80.7089 454.083L85.4248 438.588L78.0142 434.546L69.2565 445.999Z" fill="#FFB8B8"/>
<path d="M43.8165 466.169L43.657 472.272L55.1094 472.945V465.535L43.8165 466.169Z" fill="#FFB8B8"/>
<path d="M47.6987 355.052L50.3935 408.946L43.657 467.556L63.8671 470.251L76.6672 396.147L80.709 345.62L47.6987 355.052Z" fill="#003399"/>
<path d="M16.0362 335.515C16.0362 335.515 7.95206 388.736 24.794 406.252C41.6359 423.767 64.541 454.756 64.541 454.756L80.7092 434.546L39.6149 390.757L47.699 361.115L80.7092 345.621L75.3198 308.568L26.815 307.895L16.0362 335.515Z" fill="#003399"/>
<path d="M55.7831 212.232C63.9684 212.232 70.604 205.597 70.604 197.411C70.604 189.226 63.9684 182.591 55.7831 182.591C47.5977 182.591 40.9622 189.226 40.9622 197.411C40.9622 205.597 47.5977 212.232 55.7831 212.232Z" fill="#FFB8B8"/>
<path d="M42.9833 200.78C42.9833 200.78 42.3096 221.664 38.9412 224.359C35.5728 227.053 51.0674 238.506 51.0674 238.506L61.1726 222.338V207.517L42.9833 200.78Z" fill="#FFB8B8"/>
<path d="M49.7199 229.074L41.541 216.724L36.9198 223.011L30.1833 241.874L35.5728 315.305L67.2353 315.978L71.2777 231.769L61.1724 219.643L49.7199 229.074Z" fill="#EC7000"/>
<path d="M84.0776 233.79L89.467 233.116C89.467 233.116 90.8144 233.79 91.488 238.506C92.1617 243.222 100.246 284.99 100.246 284.99L89.467 336.189L77.3408 320.021L84.7513 291.726L77.3408 263.432L84.0776 233.79Z" fill="#003399"/>
<path d="M15.3626 233.116H11.3202L1.21545 287.684L10.6467 330.126L20.0779 314.631L17.3831 297.79L18.7308 282.969L23.4468 274.21L15.3626 233.116Z" fill="#003399"/>
<path d="M75.3198 452.062C75.3198 452.062 71.2777 450.714 71.2777 453.409C71.2777 456.104 73.9724 464.188 73.9724 464.188C73.9724 464.188 69.9304 489.114 75.9935 487.766C82.0566 486.419 86.7723 474.967 87.446 471.598C88.1197 468.23 91.488 450.714 91.488 450.714C91.488 450.714 96.8775 437.914 93.5091 437.241C90.1407 436.567 80.7092 433.872 80.7092 433.872C80.7092 433.872 86.0986 450.714 75.3198 452.062Z" fill="#2F2E41"/>
<path d="M55.7831 472.946C55.7831 472.946 45.0043 466.209 42.9833 471.598C41.6429 475.529 40.7392 479.596 40.2886 483.724C40.2886 483.724 37.5938 492.482 48.3727 491.135C59.1515 489.788 57.8042 489.787 58.4778 485.745C59.1515 481.703 55.7831 472.946 55.7831 472.946Z" fill="#2F2E41"/>
<path d="M47.0253 197.411L49.7201 196.738C49.7201 196.738 51.7411 185.285 56.4568 186.633C61.1726 187.98 73.2988 189.327 73.2988 183.938C73.2988 178.548 61.8463 173.833 55.1095 174.506C48.3727 175.18 36.9202 177.201 37.5939 187.306C38.2675 197.411 42.6146 207.242 42.6146 207.242L42.9657 201.25L47.0253 197.411Z" fill="#2F2E41"/>
<path d="M61.1724 237.159L49.72 229.074L61.1724 219.643L65.1487 224.414L61.1724 237.159Z" fill="#EC7000"/>
<path d="M39.6145 236.485L49.7199 229.074L41.6357 216.948L36.9198 223.011L39.6145 236.485Z" fill="#EC7000"/>
<path d="M88.7934 233.116L67.2357 224.359L62.1831 220.653L47.0254 287.684L36.9202 257.369L39.9517 218.632L11.9941 233.116L21.4256 278.926L22.773 296.442L18.7309 310.589C18.7309 310.589 4.58369 320.694 9.29943 331.473C14.0152 342.252 19.4046 342.926 19.4046 342.926C19.4046 342.926 42.3096 321.368 43.657 315.979C45.0043 310.589 47.0254 301.158 47.0254 301.158C47.0254 301.158 58.4779 344.273 71.9514 343.599C85.4249 342.926 85.425 328.779 85.425 328.779L82.0566 313.958L76.6672 298.463L79.3619 272.863L88.7934 233.116Z" fill="#003399"/>
</g>
<defs>
<clipPath id="clip0_1_170">
<rect width="654.486" height="501.895" fill="white"/>
</clipPath>
</defs>
</svg>
