<svg width="65" height="65" viewBox="0 0 65 65" fill="none" xmlns="http://www.w3.org/2000/svg">
<path d="M43.606 46.4453L34.1834 37.0228C33.8391 36.6784 33.4321 36.6158 33.213 36.6158C32.9939 36.6158 32.5869 36.6784 32.2426 37.0228L22.7887 46.4766C21.7244 47.541 20.0652 49.2627 14.5244 49.2627L26.1382 60.8452C27.8991 62.6039 30.286 63.5917 32.7747 63.5917C35.2634 63.5917 37.6503 62.6039 39.4112 60.8452L51.0563 49.2314C48.2077 49.2314 45.8285 48.6679 43.606 46.4453ZM22.7887 18.1151L32.2426 27.5689C32.493 27.8194 32.8686 27.9759 33.213 27.9759C33.5573 27.9759 33.933 27.8194 34.1834 27.5689L43.5433 18.209C45.7659 15.8925 48.3016 15.3603 51.1503 15.3603L39.5051 3.7465C37.7443 1.98783 35.3573 1 32.8686 1C30.38 1 27.993 1.98783 26.2322 3.7465L14.6183 15.329C20.1279 15.329 21.8183 17.1447 22.7887 18.1151Z" fill="#EC7000"/>
<path d="M60.8139 26.013L53.7705 18.9382H49.8262C48.1358 18.9382 46.4453 19.6269 45.2871 20.8478L35.8958 30.239C35.0193 31.1155 33.8611 31.5538 32.7028 31.5538C31.5101 31.537 30.3685 31.0669 29.5098 30.239L20.056 20.7539C18.8664 19.5643 17.2386 18.8756 15.5169 18.8756H10.9151L3.7465 26.0756C1.98783 27.8364 1 30.2233 1 32.712C1 35.2007 1.98783 37.5877 3.7465 39.3485L10.9151 46.5485H15.5482C17.2386 46.5485 18.8664 45.8598 20.0873 44.6702L29.5411 35.2164C30.4176 34.3399 31.5759 33.9016 32.7341 33.9016C33.8924 33.9016 35.0506 34.3399 35.9271 35.2164L45.3497 44.6389C46.5393 45.8285 48.1671 46.5172 49.8888 46.5172H53.8331L60.8765 39.4424C62.6426 37.6499 63.6274 35.2311 63.6156 32.7148C63.6039 30.1984 62.5966 27.789 60.8139 26.013Z" fill="#EC7000"/>
</svg>
