<svg width="58" height="58" viewBox="0 0 58 58" fill="none" xmlns="http://www.w3.org/2000/svg">
<path d="M23.6228 29C22.1728 29 20.9644 28.4563 19.9978 27.3688C19.0311 26.2813 18.6484 25.0125 18.8498 23.5625L19.6353 17.6417C19.9575 15.3458 21.0047 13.4431 22.7769 11.9335C24.5491 10.4223 26.6234 9.66667 28.9998 9.66667C31.3762 9.66667 33.4505 10.4223 35.2228 11.9335C36.995 13.4431 38.0422 15.3458 38.3644 17.6417L39.1498 23.5625C39.3512 25.0125 38.9686 26.2813 38.0019 27.3688C37.0353 28.4563 35.8269 29 34.3769 29H23.6228ZM9.6665 48.3333V41.5667C9.6665 40.1972 10.0193 38.9381 10.725 37.7894C11.4291 36.6423 12.3651 35.7667 13.5332 35.1625C16.0304 33.9139 18.5679 32.977 21.1457 32.3519C23.7234 31.7284 26.3415 31.4167 28.9998 31.4167C31.6582 31.4167 34.2762 31.7284 36.854 32.3519C39.4318 32.977 41.9693 33.9139 44.4665 35.1625C45.6346 35.7667 46.5706 36.6423 47.2747 37.7894C47.9803 38.9381 48.3332 40.1972 48.3332 41.5667V48.3333H9.6665Z" fill="white"/>
</svg>
