<svg width="65" height="52" viewBox="0 0 65 52" fill="none" xmlns="http://www.w3.org/2000/svg">
<g clip-path="url(#clip0_2_482)">
<path d="M53.941 4.13578C52.9932 3.18803 52.9932 1.6555 53.941 0.717838C54.8887 -0.219827 56.4212 -0.22991 57.3589 0.717838L63.8117 7.17059C64.2654 7.6243 64.5174 8.23932 64.5174 8.8846C64.5174 9.52987 64.2654 10.1449 63.8117 10.5986L57.3589 17.0514C56.4112 17.9991 54.8786 17.9991 53.941 17.0514C53.0033 16.1036 52.9932 14.5711 53.941 13.6334L56.2599 11.3145L38.7165 11.2943C37.3755 11.2943 36.2967 10.2155 36.2967 8.87452C36.2967 7.53356 37.3755 6.45474 38.7165 6.45474H56.27L53.941 4.13578ZM10.5865 38.0127L8.26759 40.3317H25.811C27.152 40.3317 28.2308 41.4105 28.2308 42.7515C28.2308 44.0924 27.152 45.1712 25.811 45.1712H8.2575L10.5765 47.4902C11.5242 48.4379 11.5242 49.9705 10.5765 50.9081C9.62871 51.8458 8.09619 51.8559 7.15852 50.9081L0.70577 44.4655C0.252061 44.0118 0 43.3967 0 42.7515C0 42.1062 0.252061 41.4911 0.70577 41.0374L7.15852 34.5847C8.10627 33.6369 9.6388 33.6369 10.5765 34.5847C11.5141 35.5324 11.5242 37.065 10.5765 38.0026L10.5865 38.0127ZM9.67913 6.45474H34.0685C33.6955 7.18067 33.4736 7.99735 33.4736 8.87452C33.4736 11.7682 35.8228 14.1174 38.7165 14.1174H50.5533C50.15 15.8314 50.6138 17.6966 51.9446 19.0376C53.9914 21.0843 57.3085 21.0843 59.3552 19.0376L61.3011 17.0917V38.7185C61.3011 42.2776 58.4075 45.1712 54.8484 45.1712H30.459C30.832 44.4453 31.0539 43.6286 31.0539 42.7515C31.0539 39.8578 28.7047 37.5086 25.811 37.5086H13.9742C14.3775 35.7946 13.9137 33.9293 12.5829 32.5884C10.5361 30.5416 7.21901 30.5416 5.17228 32.5884L3.22638 34.5343V12.9075C3.22638 9.34839 6.12003 6.45474 9.67913 6.45474ZM16.1319 12.9075H9.67913V19.3602C13.2382 19.3602 16.1319 16.4666 16.1319 12.9075ZM54.8484 32.2657C51.2893 32.2657 48.3956 35.1594 48.3956 38.7185H54.8484V32.2657ZM32.2638 35.4921C34.8308 35.4921 37.2927 34.4723 39.1079 32.6572C40.9231 30.842 41.9429 28.38 41.9429 25.813C41.9429 23.2459 40.9231 20.784 39.1079 18.9688C37.2927 17.1536 34.8308 16.1339 32.2638 16.1339C29.6967 16.1339 27.2348 17.1536 25.4196 18.9688C23.6044 20.784 22.5846 23.2459 22.5846 25.813C22.5846 28.38 23.6044 30.842 25.4196 32.6572C27.2348 34.4723 29.6967 35.4921 32.2638 35.4921Z" fill="#EC7000"/>
</g>
<defs>
<clipPath id="clip0_2_482">
<rect width="64.5275" height="51.622" fill="white"/>
</clipPath>
</defs>
</svg>
