<svg width="43" height="45" viewBox="0 0 43 45" fill="none" xmlns="http://www.w3.org/2000/svg">
<g clip-path="url(#clip0_84_67)">
<path d="M35.8603 26.163C36.3103 26.1636 36.7431 26.3391 37.0703 26.6537C37.3975 26.9683 37.5944 27.3984 37.6208 27.8559C37.6472 28.3135 37.501 28.764 37.2122 29.1155C36.9234 29.4669 36.5137 29.6928 36.0669 29.747L35.8603 29.7596H11.8745L15.9228 33.8829C16.2394 34.2065 16.4232 34.6408 16.4369 35.0975C16.4506 35.5541 16.2931 35.999 15.9965 36.3417C15.6998 36.6843 15.2862 36.8992 14.8397 36.9425C14.3931 36.9858 13.9472 36.8544 13.5923 36.5749L13.4264 36.4257L6.66458 29.5384C5.49054 28.3443 6.24263 26.3321 7.83509 26.1738L8.03812 26.163H35.8603ZM27.5502 8.70742C27.8542 8.39781 28.2587 8.21181 28.6877 8.18433C29.1168 8.15685 29.5409 8.28978 29.8806 8.55817L30.0466 8.70742L36.8084 15.5947C37.9824 16.7888 37.2303 18.801 35.6379 18.9593L35.4348 18.97H7.61264C7.16266 18.9695 6.72985 18.794 6.40264 18.4794C6.07543 18.1648 5.87853 17.7347 5.85216 17.2772C5.82579 16.8196 5.97194 16.3691 6.26075 16.0176C6.54957 15.6661 6.95925 15.4403 7.40608 15.3861L7.61264 15.3735H31.5984L27.5502 11.2502C27.2192 10.9129 27.0333 10.4556 27.0333 9.97879C27.0333 9.50196 27.2192 9.04465 27.5502 8.70742Z" fill="#EB1B1B"/>
</g>
<defs>
<clipPath id="clip0_84_67">
<rect width="42.3715" height="43.158" fill="white" transform="translate(0.550781 0.987549)"/>
</clipPath>
</defs>
</svg>
