<svg width="43" height="44" viewBox="0 0 43 44" fill="none" xmlns="http://www.w3.org/2000/svg">
<path d="M35.7827 25.2808C36.2327 25.2813 36.6655 25.4568 36.9927 25.7714C37.3199 26.0861 37.5168 26.5161 37.5432 26.9736C37.5695 27.4312 37.4234 27.8817 37.1346 28.2332C36.8457 28.5847 36.4361 28.8106 35.9892 28.8647L35.7827 28.8773H11.7969L15.8451 33.0007C16.1618 33.3243 16.3456 33.7585 16.3593 34.2152C16.373 34.6718 16.2155 35.1167 15.9188 35.4594C15.6222 35.8021 15.2086 36.0169 14.762 36.0602C14.3155 36.1035 13.8695 35.9721 13.5147 35.6927L13.3487 35.5434L6.58695 28.6561C5.4129 27.4621 6.165 25.4498 7.75746 25.2916L7.96049 25.2808H35.7827ZM27.4726 7.82516C27.7766 7.51554 28.181 7.32955 28.6101 7.30207C29.0391 7.27459 29.4633 7.40751 29.803 7.67591L29.9689 7.82516L36.7307 14.7125C37.9048 15.9065 37.1527 17.9187 35.5602 18.077L35.3572 18.0878H7.53501C7.08502 18.0873 6.65221 17.9118 6.325 17.5971C5.9978 17.2825 5.80089 16.8525 5.77452 16.3949C5.74815 15.9374 5.8943 15.4868 6.18312 15.1354C6.47193 14.7839 6.88161 14.558 7.32845 14.5039L7.53501 14.4913H31.5208L27.4726 10.3679C27.1416 10.0307 26.9557 9.57336 26.9557 9.09652C26.9557 8.61969 27.1416 8.16238 27.4726 7.82516Z" fill="#0D9E00"/>
</svg>
